<svg width="19" height="19" viewBox="0 0 19 19" fill="none" xmlns="http://www.w3.org/2000/svg">
<path d="M16.4384 0H2.5616C1.1443 0 0 1.1443 0 2.5616V16.4384C0 17.8499 1.1443 18.9942 2.5616 18.9942H9.40416L9.41578 12.2039H7.64995C7.42342 12.2039 7.23754 12.018 7.23173 11.7915L7.22592 9.60165C7.22592 9.36931 7.4118 9.18343 7.64415 9.18343H9.40416V7.06909C9.40416 4.61785 10.9028 3.28187 13.0926 3.28187H14.8875C15.1198 3.28187 15.3057 3.46775 15.3057 3.70009V5.54723C15.3057 5.77958 15.1198 5.96545 14.8875 5.96545H13.7839C12.5931 5.96545 12.3607 6.52889 12.3607 7.35952V9.18924H14.9746C15.2244 9.18924 15.4161 9.40416 15.387 9.65393L15.1256 11.8438C15.1024 12.0529 14.9223 12.2097 14.7132 12.2097H12.3666V18.9942H16.4384C17.8499 18.9942 19 17.8499 19 16.4326V2.5616C18.9942 1.1443 17.8499 0 16.4384 0Z" fill="#475993"/>
</svg>
